<?xml version="1.0" encoding="UTF-8"?>
<svg id="Layer_1" data-name="Layer 1" xmlns="http://www.w3.org/2000/svg" xmlns:xlink="http://www.w3.org/1999/xlink" viewBox="0 0 814.58 815.99">
  <defs>
    <style>
      .cls-1 {
        fill: url(#linear-gradient);
      }

      .cls-2 {
        fill: url(#linear-gradient-8);
      }

      .cls-3 {
        fill: url(#linear-gradient-9);
      }

      .cls-4 {
        fill: url(#linear-gradient-3);
      }

      .cls-5 {
        fill: url(#linear-gradient-4);
      }

      .cls-6 {
        fill: url(#linear-gradient-2);
      }

      .cls-7 {
        fill: url(#linear-gradient-6);
      }

      .cls-8 {
        fill: url(#linear-gradient-7);
      }

      .cls-9 {
        fill: url(#linear-gradient-5);
      }

      .cls-10 {
        fill: url(#linear-gradient-14);
      }

      .cls-11 {
        fill: url(#linear-gradient-15);
      }

      .cls-12 {
        fill: url(#linear-gradient-13);
      }

      .cls-13 {
        fill: url(#linear-gradient-12);
      }

      .cls-14 {
        fill: url(#linear-gradient-10);
      }

      .cls-15 {
        fill: url(#linear-gradient-11);
      }
    </style>
    <linearGradient id="linear-gradient" x1="-134.81" y1="928.79" x2="680.82" y2="113.16" gradientUnits="userSpaceOnUse">
      <stop offset=".03" stop-color="lime"/>
      <stop offset=".2" stop-color="#ebff00"/>
      <stop offset=".53" stop-color="#ff3200"/>
      <stop offset=".95" stop-color="#0a00ff"/>
    </linearGradient>
    <linearGradient id="linear-gradient-2" x1="79.66" y1="1143.26" x2="895.29" y2="327.63" xlink:href="#linear-gradient"/>
    <linearGradient id="linear-gradient-3" x1="-123.42" y1="940.17" x2="692.21" y2="124.54" xlink:href="#linear-gradient"/>
    <linearGradient id="linear-gradient-4" x1="-123.41" y1="940.19" x2="692.22" y2="124.56" xlink:href="#linear-gradient"/>
    <linearGradient id="linear-gradient-5" x1="-130.13" y1="933.46" x2="685.5" y2="117.83" xlink:href="#linear-gradient"/>
    <linearGradient id="linear-gradient-6" x1="-130.12" y1="933.48" x2="685.51" y2="117.85" xlink:href="#linear-gradient"/>
    <linearGradient id="linear-gradient-7" x1="-134.82" y1="928.77" x2="680.81" y2="113.15" xlink:href="#linear-gradient"/>
    <linearGradient id="linear-gradient-8" x1="-134.79" y1="928.8" x2="680.84" y2="113.17" xlink:href="#linear-gradient"/>
    <linearGradient id="linear-gradient-9" x1="-123.51" y1="940.08" x2="692.12" y2="124.45" xlink:href="#linear-gradient"/>
    <linearGradient id="linear-gradient-10" x1="-123.5" y1="940.1" x2="692.13" y2="124.47" xlink:href="#linear-gradient"/>
    <linearGradient id="linear-gradient-11" x1="-123.48" y1="940.11" x2="692.14" y2="124.48" xlink:href="#linear-gradient"/>
    <linearGradient id="linear-gradient-12" x1="-123.47" y1="940.12" x2="692.16" y2="124.5" xlink:href="#linear-gradient"/>
    <linearGradient id="linear-gradient-13" x1="-123.46" y1="940.14" x2="692.17" y2="124.51" xlink:href="#linear-gradient"/>
    <linearGradient id="linear-gradient-14" x1="-123.44" y1="940.15" x2="692.19" y2="124.52" xlink:href="#linear-gradient"/>
    <linearGradient id="linear-gradient-15" x1="-123.43" y1="940.17" x2="692.2" y2="124.54" xlink:href="#linear-gradient"/>
  </defs>
  <polygon class="cls-1" points="541.26 344.53 540.81 344.08 401.98 205.25 198.89 2.16 198.89 2.16 190.8 2.16 171.95 2.16 145.01 2.16 348.1 205.25 375.03 205.25 527.33 357.55 578.07 408.33 596.91 408.33 814.58 626.21 814.58 618.12 814.58 618.12 814.58 618.12 605 408.33 541.26 344.53"/>
  <polygon class="cls-6" points="408.96 814.51 408.41 813.96 408.41 814.51 408.96 814.51"/>
  <polygon class="cls-4" points="720.16 2.16 801.43 83.43 814.58 96.6 814.58 69.66 814.58 50.79 814.58 42.71 814.58 2.16 720.16 2.16"/>
  <polygon class="cls-5" points="659.02 2.16 659.01 2.16 659.01 2.16 650.93 2.16 632.07 2.16 605.13 2.16 743.92 140.95 808.16 205.25 814.58 211.68 814.58 205.25 814.58 184.74 814.58 165.86 814.58 157.78 814.58 157.77 770.88 114.02 659.02 2.16"/>
  <polygon class="cls-9" points="713.35 171.53 713.35 171.53 543.98 2.16 543.98 2.16 543.98 2.16 535.89 2.16 517.04 2.16 490.1 2.16 686.41 198.47 693.18 205.25 720.11 205.25 814.58 299.82 814.58 280.95 814.58 272.86 814.58 272.86 747.04 205.25 713.35 171.53"/>
  <polygon class="cls-7" points="655.84 229.05 655.83 229.04 632.04 205.25 428.95 2.16 428.95 2.16 420.86 2.16 402.01 2.16 375.07 2.16 578.16 205.25 605.09 205.25 642.36 242.51 808.01 408.33 814.58 414.91 814.58 408.33 814.58 396.04 814.58 387.95 814.58 387.95 655.84 229.05 655.84 229.05"/>
  <polygon class="cls-8" points="598.33 286.57 598.32 286.56 517.01 205.25 313.92 2.16 313.91 2.16 305.82 2.16 286.97 2.16 260.04 2.16 463.13 205.25 490.06 205.25 584.84 300.03 693.04 408.33 711.89 408.33 814.58 511.13 814.58 503.04 719.97 408.33 598.33 286.57"/>
  <polygon class="cls-2" points="490.03 408.33 483.29 401.59 286.95 205.25 83.86 2.16 83.85 2.16 75.77 2.16 56.91 2.16 29.98 2.16 233.06 205.25 260 205.25 463.08 408.33 481.94 408.33 814.58 741.3 814.58 733.21 814.58 733.21 814.58 733.2 638.39 556.84 490.03 408.33"/>
  <polygon class="cls-3" points="425.78 459.11 408.41 441.74 205.32 238.66 2.24 35.57 2.24 35.58 2.24 43.67 2.24 62.52 2.24 89.45 205.32 292.54 205.32 265.61 408.41 468.7 408.41 449.83 421.73 463.15 772.74 814.51 780.82 814.51 780.83 814.51 780.83 814.51 580.87 614.36 425.78 459.11"/>
  <polygon class="cls-14" points="408.41 556.82 368.26 516.63 205.32 353.69 2.24 150.6 2.24 150.61 2.24 158.7 2.24 177.55 2.24 204.49 205.32 407.57 205.32 380.64 354.78 530.1 408.41 583.78 408.41 564.91 657.77 814.51 665.85 814.51 665.85 814.51 665.85 814.51 523.35 671.87 408.41 556.82"/>
  <polygon class="cls-15" points="310.75 574.14 205.32 468.71 2.24 265.63 2.24 265.64 2.24 265.64 2.24 273.72 2.24 292.58 2.24 319.52 205.32 522.6 205.32 495.67 297.26 587.61 408.41 698.87 408.41 679.99 542.8 814.51 550.88 814.51 550.88 814.51 408.41 671.9 310.75 574.14"/>
  <polygon class="cls-13" points="253.24 631.66 205.32 583.75 2.24 380.66 2.24 380.67 2.24 380.67 2.24 388.75 2.24 407.61 2.24 434.54 205.32 637.63 205.32 610.71 239.74 645.13 408.41 813.96 408.41 795.08 427.82 814.51 435.9 814.51 435.9 814.51 435.91 814.51 408.41 786.98 253.24 631.66"/>
  <polygon class="cls-12" points="195.72 689.18 2.24 495.69 2.24 495.7 2.24 503.79 2.24 522.64 2.24 549.58 168.76 716.11 205.32 752.7 205.32 725.75 293.99 814.51 312.85 814.51 320.92 814.51 320.92 814.51 320.93 814.51 205.32 698.79 195.72 689.18"/>
  <polygon class="cls-10" points="138.2 746.69 2.24 610.73 2.24 610.73 2.24 618.82 2.24 637.68 2.24 664.61 111.25 773.62 152.09 814.51 179.01 814.51 197.87 814.51 205.32 814.51 205.95 814.51 205.95 814.51 205.95 814.51 205.32 813.88 138.2 746.69"/>
  <polygon class="cls-11" points="80.68 804.2 2.24 725.76 2.24 733.85 2.24 752.7 2.24 814.51 37.11 814.51 64.04 814.51 82.89 814.51 90.98 814.51 80.91 804.43 80.68 804.2"/>
</svg>
